<svg xmlns="http://www.w3.org/2000/svg" width="512" height="492" viewBox="0 0 512 492">
    <g fill="none" fill-rule="evenodd">
        <path fill="#ABDC00" fill-rule="nonzero" d="M471.118 239.781l-12.183-105.17c47.621-34.51 67.364-92.424 38.842-120.946-12.18-12.18-31.213-16.152-52.215-10.9-18.604 4.65-37.684 16.046-53.723 32.085-.195.199-.382.401-.577.596L250.467 19.134 0 269.606l220.647 220.646 250.47-250.47zM452.829 31.832c10.546-2.635 19.205-1.536 23.759 3.018 11.087 11.088.931 41.832-21.778 64.175l-3.49-30.117-24.51-24.51c8.554-6.055 17.552-10.449 26.02-12.566zM261.411 50.57L370.14 63.166c-4.574 8.074-8.02 16.362-10.16 24.577l-10.515-10.515-21.185 21.185 63.56 63.563 21.188-21.189-21.189-21.185c-4.553-4.554-5.653-13.212-3.017-23.758 2.35-9.404 7.505-19.454 14.624-28.823l4.09.476 15.223 15.224 16.928 146.12-219.04 219.037L42.374 269.606 261.411 50.569z"/>
        <path fill="#5DBB00" fill-rule="nonzero" d="M165.4 211.204c-24.78 0-44.944 20.164-44.944 44.948 0 24.78 20.164 44.943 44.943 44.943 24.784 0 44.948-20.164 44.948-44.943 0-24.784-20.164-44.948-44.948-44.948zm0 59.926c-8.262 0-14.98-6.721-14.98-14.978 0-8.262 6.718-14.983 14.98-14.983 8.26 0 14.982 6.721 14.982 14.983 0 8.257-6.718 14.978-14.983 14.978zM315.216 301.095c24.783 0 44.947-20.164 44.947-44.943 0-24.784-20.164-44.948-44.947-44.948-24.784 0-44.944 20.164-44.944 44.948 0 24.78 20.16 44.943 44.944 44.943zm0-59.926c8.26 0 14.982 6.721 14.982 14.983 0 8.257-6.721 14.978-14.982 14.978s-14.983-6.721-14.983-14.978c0-8.262 6.722-14.983 14.983-14.983z"/>
        <path fill="#5DBB00" d="M240.514 163.8l29.556 4.925-29.965 179.781-29.556-4.928z"/>
    </g>
</svg>
