<svg xmlns="http://www.w3.org/2000/svg" width="87" height="87" viewBox="0 0 87 87">
    <g fill="#ABDC00" fill-rule="evenodd">
        <path fill-rule="nonzero" d="M43.5 64.844c9.887 0 12.744-1.21 12.744-5.404 0-5.96-5.717-10.807-12.744-10.807S30.586 53.48 30.586 59.44c0 4.193 3.027 5.404 12.914 5.404zm5.098-10.807c1.407 0 2.548 1.21 2.548 2.702s-1.14 2.701-2.548 2.701c-1.408 0-2.55-1.209-2.55-2.701 0-1.493 1.142-2.702 2.55-2.702zm-10.366 0c1.408 0 2.55 1.21 2.55 2.702s-1.142 2.701-2.55 2.701c-1.407 0-2.548-1.209-2.548-2.701 0-1.493 1.14-2.702 2.548-2.702z"/>
        <path fill-rule="nonzero" d="M25.488 18.913v5.404c0 4.469-3.43 8.105-7.646 8.105-.047 0-.09-.015-.138-.015-4.724 7.304-7.509 16.03-7.509 24.332 0 18.055 13.176 29.9 33.305 29.9 20.13 0 33.135-11.845 33.135-29.9 0-8.301-2.785-17.028-7.51-24.332-.046.001-.09.015-.137.015-4.216 0-7.646-3.636-7.646-8.105v-5.404c0-7.679 3.44-14.453 8.699-18.913h-1.053c-9.379 0-17.09 7.71-17.79 17.464a24.848 24.848 0 0 0-15.567 0C34.931 7.71 27.221 0 17.841 0H16.79c5.259 4.46 8.7 11.234 8.7 18.913zm28.207 13.51c1.408 0 2.55 1.209 2.55 2.7 0 1.493-1.142 2.703-2.55 2.703s-2.549-1.21-2.549-2.702 1.141-2.702 2.55-2.702zm-20.56 0c1.408 0 2.549 1.209 2.549 2.7 0 1.493-1.141 2.703-2.55 2.703-1.407 0-2.548-1.21-2.548-2.702s1.14-2.702 2.549-2.702zM43.5 43.228c9.837 0 17.842 7.272 17.842 16.211 0 10.808-11.169 10.808-17.842 10.808-6.673 0-18.012 0-18.012-10.808 0-8.939 8.175-16.21 18.012-16.21z"/>
        <path d="M17.842 27.018c1.408 0 2.549-1.21 2.549-2.701v-5.404C20.39 8.468 12.402 0 2.549 0 1.14 0 0 1.21 0 2.702v5.404C0 18.55 7.988 27.018 17.842 27.018zM66.44 24.317c0 1.492 1.14 2.701 2.548 2.701C78.842 27.018 87 18.551 87 8.106V2.702C87 1.209 85.859 0 84.451 0 74.598 0 66.44 8.468 66.44 18.913v5.404z"/>
    </g>
</svg>
