<svg xmlns="http://www.w3.org/2000/svg" width="97" height="111" viewBox="0 0 97 111">
    <path fill="#ABDC00" fill-rule="nonzero" d="M96.88 29.445H81.043c1.072-2.2 1.948-4.653 2.617-7.34 1.727-6.938 1.488-13.038 1.477-13.294L84.76 0l-4.352 7.66c-2.248 3.957-5.014 7.33-8.222 10.027a32.429 32.429 0 0 1-8.488 5.158 31.614 31.614 0 0 1-5.216 1.645H38.517c-5.51-1.227-15.216-5.033-21.918-16.83L12.247 0l-.379 8.81c-.01.257-.248 6.357 1.478 13.296.668 2.686 1.545 5.14 2.616 7.339H.14l-.05 2.49c-.006.322-.093 7.95 5.491 13.724 3.422 3.538 8.142 5.572 14.055 6.063-.003 7.616 1.115 13.225 3.397 17.094 4.143 7.022 5.171 27.884 5.218 35.33l.005.64.305.562c.357.658 1.393 1.926 4.308 3.026 3.562 1.345 8.825 2.028 15.642 2.028 6.818 0 12.08-.682 15.643-2.028 2.915-1.1 3.95-2.368 4.308-3.026l.305-.561.005-.64c.045-7.444 1.072-28.302 5.218-35.33 2.283-3.87 3.4-9.478 3.397-17.094 5.913-.491 10.633-2.525 14.055-6.063 5.584-5.774 5.497-13.402 5.49-13.724l-.051-2.491zm-75.122 0c-2.287-3.636-3.499-7.96-4.138-11.69a39.203 39.203 0 0 0 4.08 3.94 37.587 37.587 0 0 0 6.894 4.561c-1.55.814-3.338 1.902-4.774 3.189h-2.062zm5.597 33.329c-1.925-1.017-2.463-3.794-1.2-6.203 1.262-2.41 3.846-3.54 5.77-2.523 1.926 1.016 2.464 3.792 1.201 6.202-1.262 2.41-3.846 3.54-5.771 2.524zm36.364 40.205c-.623.374-1.95.986-4.492 1.49-1.343-2.004-4.318-4.695-10.607-4.727h-.113c-6.308.032-9.281 2.742-10.619 4.747-2.607-.508-3.96-1.13-4.591-1.509-.02-1.034-.062-2.716-.154-4.82 3.673-3.229 10.28-11.088 10.524-25.984.338-20.674-13.337-23.773-8.272-31.627 5.065-7.855 10.636-6.16 13.168-6.16s8.104-1.695 13.168 6.16c5.064 7.854-8.61 10.953-8.273 31.627.241 14.752 6.723 22.602 10.416 25.888a204.847 204.847 0 0 0-.155 4.915zm6.057-40.205c-1.925 1.016-4.51-.114-5.772-2.524-1.262-2.41-.724-5.187 1.201-6.202 1.925-1.017 4.51.113 5.772 2.523 1.262 2.409.724 5.186-1.201 6.203zm5.471-33.33h-2.049c-1.438-1.287-3.23-2.377-4.78-3.191a37.563 37.563 0 0 0 6.887-4.558 39.061 39.061 0 0 0 4.08-3.94c-.638 3.73-1.85 8.053-4.138 11.69z"/>
</svg>
