<svg xmlns="http://www.w3.org/2000/svg" width="522" height="567" viewBox="0 0 522 567">
    <g fill="none" fill-rule="nonzero">
        <path fill="#ABDC00" d="M27.763 80.74A27.273 27.273 0 0 0 48.7 79.259l8.091-4.05L174.926 438.07a27.538 27.538 0 0 0 12.8 15.415c-17.106 21.21-18.906 50.927-4.485 74.047 14.42 23.12 41.9 34.575 68.472 28.542 26.573-6.033 46.412-28.23 49.436-55.31 3.023-27.08-11.431-53.107-36.02-64.852l228.453-81.06a27.429 27.429 0 1 0-18.285-51.694l-24.311 8.622-57.884-164.81a9.143 9.143 0 0 0-11.657-5.595l-27.886 9.783-37.915-108.032a9.143 9.143 0 0 0-11.657-5.595l-46.29 16.274-34.743 12.187L176.69 82.23a9.143 9.143 0 0 0-5.596 11.657l37.989 108.032-17.426 6.117a9.143 9.143 0 0 0-5.596 11.648l58.103 165.486-25.792 9.142L99.086 27.94a27.429 27.429 0 0 0-38.345-16.046L24.17 30.18a27.429 27.429 0 0 0 3.593 50.56zm282.103 105.143l15.543 44.26-15.379-3.931a9.143 9.143 0 0 0-9.572 3.355l-9.555 12.69-15.542-44.26 17.261-6.062 17.244-6.052zm-47.16-90.313l-4.863-1.235a9.143 9.143 0 0 0-9.573 3.356l-3.008 4.004-7.552-21.513 8.723-3.063 8.713-3.063 7.56 21.514zm-42.248-9.335l13.211 37.632a9.143 9.143 0 0 0 7.223 6.016c.463.07.93.103 1.399.1a9.143 9.143 0 0 0 7.314-3.657l9.618-12.8 15.543 3.959a9.143 9.143 0 0 0 10.89-11.886l-13.258-37.604 29.02-10.185 34.541 98.395-109.979 38.62-34.542-98.405 29.02-10.185zm37.64 117.815l21.203 60.388a9.143 9.143 0 0 0 15.927 2.469l16.165-21.468 26.02 6.656a9.143 9.143 0 0 0 10.898-11.885l-21.193-60.343 51.758-18.176 54.51 155.245-172.535 60.526-54.51-155.246L258.1 204.05zm-20.516 243.812c23.501-.304 43.505 17.04 46.532 40.347 3.028 23.307-11.88 45.187-34.68 50.897-22.798 5.71-46.259-6.56-54.574-28.544-8.315-21.982 1.152-46.708 22.023-57.516l12.187-4.324a45.778 45.778 0 0 1 8.512-.86zM32.343 46.536l36.572-18.285a9.143 9.143 0 0 1 12.8 5.348L203.89 408.895a9.143 9.143 0 0 0 11.748 5.788l265.747-94.3a9.143 9.143 0 0 1 11.282 12.553 9.033 9.033 0 0 1-5.193 4.682l-262.857 93.257a63.36 63.36 0 0 0-16.019 5.687l-4.571 1.618a9.143 9.143 0 0 1-11.749-5.788L70.89 59.455a9.143 9.143 0 0 0-5.192-5.604 9.28 9.28 0 0 0-3.53-.704 9.143 9.143 0 0 0-4.086.914l-17.555 8.887a9.159 9.159 0 0 1-8.228-16.366l.045-.046z"/>
        <path fill="#ABDC00" d="M210.286 493.714c0 15.149 12.28 27.429 27.428 27.429 15.149 0 27.429-12.28 27.429-27.429 0-15.148-12.28-27.428-27.429-27.428-15.148 0-27.428 12.28-27.428 27.428zm27.428-9.143a9.143 9.143 0 1 1 0 18.286 9.143 9.143 0 0 1 0-18.286z"/>
        <path fill="#5DBB00" d="M451.407 311.766l-57.883-164.809a9.143 9.143 0 0 0-11.657-5.595l-27.886 9.782-37.915-108.032a9.143 9.143 0 0 0-11.658-5.595l-46.29 16.274-34.743 12.188-46.263 16.237a9.143 9.143 0 0 0-5.595 11.658l37.989 108.032-17.427 6.116a9.143 9.143 0 0 0-5.595 11.648l58.103 165.486 206.82-73.39zM310.287 185.87l15.543 44.26-15.378-3.93a9.143 9.143 0 0 0-9.573 3.355l-9.554 12.69-15.543-44.26 17.262-6.062 17.243-6.053zm-47.159-90.313l-4.864-1.234a9.143 9.143 0 0 0-9.572 3.355l-3.008 4.005-7.552-21.514 8.722-3.062 8.713-3.063 7.561 21.513zM220.88 86.22l13.212 37.632a9.143 9.143 0 0 0 7.223 6.016c.463.07.93.104 1.398.1a9.143 9.143 0 0 0 7.315-3.657l9.618-12.8 15.543 3.96a9.143 9.143 0 0 0 10.89-11.886L272.82 67.98l29.02-10.185 34.541 98.395-109.98 38.62-34.541-98.405 29.02-10.185zm37.641 117.815l21.203 60.388a9.143 9.143 0 0 0 15.927 2.47l16.164-21.468 26.02 6.656a9.143 9.143 0 0 0 10.9-11.886l-21.194-60.343 51.758-18.176 54.51 155.246-172.536 60.525-54.51-155.245 51.758-18.167z"/>
    </g>
</svg>
