<svg xmlns="http://www.w3.org/2000/svg" width="122" height="108" viewBox="0 0 122 108">
    <g fill="#000" fill-rule="evenodd">
        <path d="M122 102.15v-87.3c0-2.679-1.79-4.85-4-4.85H98c-2.21 0-4 2.171-4 4.85v87.3c0 2.68 1.79 4.85 4 4.85h20c2.21 0 4-2.17 4-4.85zM50.134 107h22.733c2.283 0 4.133-2.176 4.133-4.864V4.864C77 2.176 75.15 0 72.867 0H50.134C47.85 0 46 2.176 46 4.864v97.272c0 2.688 1.85 4.864 4.134 4.864zM4 39c-2.21 0-4 2.173-4 4.857v58.285C0 104.827 1.79 107 4 107h20c2.21 0 4-2.173 4-4.858V43.857C28 41.173 26.21 39 24 39H4z"/>
    </g>
</svg>
