<svg xmlns="http://www.w3.org/2000/svg" width="34" height="34" viewBox="0 0 34 34">
    <path fill="#FFF" fill-rule="nonzero" stroke="#FFF" stroke-width=".5" d="M17 33C8.16 33 1 25.84 1 17S8.16 1 17 1s16 7.16 16 16-7.16 16-16 16zm0-1.6c4.72 0 8.92-2.28 11.56-5.8-2.64-3.52-6.84-5.8-11.56-5.8-4.72 0-8.92 2.28-11.56 5.8 2.64 3.52 6.84 5.8 11.56 5.8zm0-28.8C9.04 2.6 2.6 9.04 2.6 17c0 2.6.72 5.08 1.92 7.2 2.92-3.64 7.44-6 12.48-6s9.56 2.32 12.48 6c1.24-2.12 1.92-4.56 1.92-7.2 0-7.96-6.44-14.4-14.4-14.4zm0 14c-3.08 0-5.6-2.52-5.6-5.6 0-3.08 2.52-5.6 5.6-5.6 3.08 0 5.6 2.52 5.6 5.6 0 3.08-2.52 5.6-5.6 5.6zM17 7c-2.2 0-4 1.8-4 4s1.8 4 4 4 4-1.8 4-4-1.8-4-4-4z"/>
</svg>
