<svg xmlns="http://www.w3.org/2000/svg" width="31" height="28" viewBox="0 0 31 28">
    <path fill="#FFF" fill-rule="nonzero" stroke="#FFF" stroke-width=".667" d="M29.777 7.289L8.223 5.786l-.816-4.578H1.223v1.298H6.28l3.318 18.733c-1.333.481-2.197 1.728-2.146 3.097.05 1.368 1.005 2.553 2.37 2.942 1.364.388 2.834-.105 3.651-1.227a3.09 3.09 0 0 0-.048-3.722h9.914a3.087 3.087 0 0 0 .143 3.939c.99 1.123 2.65 1.445 4.015.78 1.365-.666 2.076-2.146 1.72-3.577-.357-1.432-1.688-2.441-3.217-2.44H10.927l-.505-2.833h16.243l3.112-10.91zM12.725 24.218c-.002.763-.481 1.45-1.215 1.74a2.015 2.015 0 0 1-2.136-.416 1.833 1.833 0 0 1-.414-2.059c.307-.703 1.026-1.16 1.82-1.154 1.076.009 1.945.852 1.945 1.889zm15.232 0c0 1.04-.878 1.885-1.96 1.885-1.082 0-1.959-.844-1.959-1.885 0-1.042.877-1.886 1.96-1.886 1.08.002 1.957.845 1.959 1.886zM10.192 16.9L8.46 7.107l19.582 1.356-2.404 8.437H10.192z"/>
</svg>
