<svg xmlns="http://www.w3.org/2000/svg" width="66" height="104" viewBox="0 0 66 104">
    <g fill="#ABDC00" fill-rule="evenodd">
        <path d="M3.917 39.03c.902-.93 2.078-1.772 4.018-2.655 2.65-1.206 4.35-2.097 6.408-3.744 1.537-1.23 1.768-1.04.87.707a19.43 19.43 0 0 0-.747 1.618c-.744 1.815.297 2.46 1.937 1.362 3.373-2.257 8.992-5.743 13.226-6.944 5.86-1.662 12.399-3.601 20.181-11.465 1.384-1.398 1.478-3.886.192-5.376-2.427-2.818-6.226-5.624-17.3-5.626-15.847-.003-20.718 11.476-21.539 12.982-2.1 3.85-7.646 12.089-9.076 18.461-.43 1.91.46 2.094 1.83.68z"/>
        <path fill-rule="nonzero" d="M45.389 78.13c-10.562-8.802-21.44-4.327-26.513-1.294-1.697 1.007-2.572 3.57-2.115 5.479a4504.556 4504.556 0 0 0 2.857 11.872s2.795 9.308 12.405 9.57c9.608.26 12.226-9.012 12.226-9.012s1.284-4.692 2.85-10.725c.49-1.902-.197-4.626-1.71-5.89zM28.462 99.489a1.016 1.016 0 0 1-.562.153c-1.283 0-3.593-1.971-4.329-7.269-.009-.046-.23-1.232.274-1.886.188-.247.455-.384.795-.405 1.005-.005 1.241 1.432 1.413 2.48.024.141.045.275.068.4l.03.168c.119.664.24 1.34.83 2.347.699 1.197 1.717 2.227 1.873 2.561.102.213.145.44.125.649-.027.326-.208.607-.517.802zm11.245-6.626c-.748 5.044-2.974 6.926-4.202 6.926a.998.998 0 0 1-.553-.156c-.293-.19-.461-.46-.488-.769-.02-.2.028-.417.127-.629.156-.325 1.145-1.3 1.823-2.438.57-.957.696-1.602.81-2.24l.033-.16c.025-.113.045-.246.07-.381.182-1.034.43-2.467 1.38-2.366.324.03.578.164.76.402.476.628.254 1.762.24 1.811z"/>
        <path fill-rule="nonzero" d="M15.562 41.145l-4.25 3.138c-1.586 1.169-2.586.554-2.232-1.374l.005-.034c.355-1.93.568-3.46.475-3.42-.056.028-.113.051-.17.078A16.7 16.7 0 0 0 8 40.24c-.745.435-1.064 2.488-.733 4.422.773 4.526 2.343 12.024 5.403 21.62.596 1.87 1.245 3.976 1.417 4.717.172.74 1.636.435 3.364-.515 14.078-7.733 24.724-2.329 29.475 1.186 1.583 1.172 2.705 2.291 2.72 2.243.007-.03.014-.055.02-.087 2.422-9.968 9.68-18.844 10.053-34.409.198-8.41-1.729-14.449-3.545-18.22-.856-1.77-2.806-1.9-4.206-.512-8.398 8.343-15.534 10.371-21.375 12.026-4.8 1.366-12.48 6.554-15.031 8.434zm7.258 5.637a2.416 2.416 0 0 1-2.423-2.405c0-1.323 1.088-2.404 2.423-2.404a2.418 2.418 0 0 1 2.423 2.404 2.418 2.418 0 0 1-2.423 2.405zm19.768-4.81c1.333 0 2.423 1.08 2.423 2.405a2.42 2.42 0 0 1-2.423 2.405 2.416 2.416 0 0 1-2.423-2.405c0-1.32 1.088-2.404 2.423-2.404z"/>
        <path d="M7.908 18.548c.06-.11.12-.216.175-.32.038-.062.08-.15.135-.257a28.89 28.89 0 0 1 1.837-3.127c1.103-1.629.88-3.744-.58-5.069-3.81-3.45-4.047-5.509-4.251-6.516C4.506-.303 2.969.768 2.454 1.633-.592 6.5 2.79 12.565 5.446 16.129c1.175 1.581 2.364 2.595 2.462 2.42zM62.75 45.356c-1.049 7.812-3.663 13.895-6.023 19.383-1.475 3.436-2.872 6.68-3.66 9.904-2.41 9.9-5.41 20.897-5.442 21.007-.397 1.387-1.204 3.199-2.483 4.978-1.153 1.593-.779 2.883 1.188 3.08.465.042.946.092 1.442.133 1.97.163 3.636-1.419 3.84-3.367.444-4.317 1.346-11.064 1.903-15.163.264-1.945 1.1-2.302 1.802-.774.7 1.523 2.412 1.628 2.961-.256 1.013-3.442.991-8.665.784-12.22-.113-1.96.666-2.275 1.659-.58.213.365.42.747.626 1.14.895 1.747 2.103 1.9 2.402-.036.898-5.804.408-17.412-.348-27.224-.154-1.953-.386-1.95-.651-.005zM16.696 95.65c-.03-.11-3.033-11.106-5.443-21.007-.782-3.223-2.062-6.266-2.916-9.904-1.386-5.914-2.992-10.066-4.344-17.055-.373-1.925-.75-1.91-.952.038C2.058 57.08.458 67.202.782 72.54c.118 1.96 1.301 1.824 2.196.078.2-.394.41-.772.623-1.136.991-1.696 1.771-1.378 1.657.579-.206 3.555-.23 8.773.784 12.216.553 1.886 2.265 1.783 2.963.26.698-1.528 1.534-1.17 1.8.774.56 4.097 1.46 10.846 1.904 15.163.2 1.952 1.872 3.53 3.842 3.367.489-.04.972-.09 1.437-.133 1.967-.197 2.34-1.488 1.19-3.08-1.281-1.78-2.09-3.59-2.482-4.978zM54.72 12.544c.069-.073.471.392.897 1.04.426.649.886 1.297 1.018 1.452.133.156.231.296.21.32-.018.019.087.214.23.436l.264.401c.257.382.526.816.808 1.299.425.726 1.836.179 3.014-1.4 2.648-3.571 6-9.606 2.963-14.46-.513-.864-2.054-1.935-2.772 1.627-.205 1.018-.445 3.117-4.4 6.655-1.467 1.312-2.684 2.362-2.571 2.506.12.145.27.198.34.124z"/>
    </g>
</svg>
