<svg xmlns="http://www.w3.org/2000/svg" width="30" height="111" viewBox="0 0 30 111">
    <g fill="#ABDC00" fill-rule="evenodd">
        <path d="M.194 101.458V79.425c0-1.518 3.957-2.446 9.892-2.79V70.6h9.893v6.036c3.956.343 9.892 1.27 9.892 2.789v22.033c0 3.899-15.037 9.017-15.037 9.017s-14.64-5.12-14.64-9.017zM18 31.378h-5.935v35.3H18z"/>
        <path fill-rule="nonzero" d="M10.086 17.056C6.24 13.706 5.971 6.586 5.84 3.034L5.694 0h19.171l-.118 2.334c-.172 3.502-.584 11.476-4.768 14.906v10.215h-9.892v-10.4zm5.194-2.103c2.934 0 4.291-3.286 4.948-7.109h-10.04c.571 4.062 1.887 7.11 5.092 7.11z"/>
    </g>
</svg>
