<svg xmlns="http://www.w3.org/2000/svg" width="72" height="113" viewBox="0 0 72 113">
    <g fill="#ABDC00" fill-rule="evenodd">
        <path d="M45.045 59.562h-18.09c-.67 0-1.177.279-1.598.623L36 71.179l10.643-10.994c-.421-.344-.928-.623-1.598-.623z"/>
        <path d="M26.278 68.867l6.794 13.69c1.132 2.285 4.724 2.285 5.856 0l6.794-13.69L36 76.06l-9.722-7.192zM6.545 33.188c3.609 0 6.546-2.959 6.546-6.594 0-.23-.108-.424-.13-.648 1.064.399 2.202.648 3.403.648 3.011 0 5.677-1.402 7.48-3.56 2.337 2.191 5.445 3.56 8.883 3.56 7.22 0 13.091-5.914 13.091-13.187S39.948 0 32.728 0c-5.285 0-9.82 3.183-11.886 7.733-1.349-.704-2.857-1.14-4.478-1.14-5.414 0-9.819 4.657-9.819 10.11 0 1.21.248 2.356.644 3.429-.222-.023-.415-.131-.644-.131C2.937 20 0 22.959 0 26.594s2.937 6.594 6.545 6.594zM19.499 102.42c0 5.455 4.404 10.111 9.818 10.111 3.594 0 5.614-1.868 6.699-2.395 1.07.521 3.075 2.395 6.696 2.395 5.414 0 9.818-4.656 9.818-10.11a9.846 9.846 0 0 0-.972-4.298l-6.721-12.727-.054.11c-1.675 3.374-5.04 5.466-8.783 5.466-3.742 0-7.108-2.092-8.783-5.467l-.05-.101-6.7 12.728a9.877 9.877 0 0 0-.968 4.289z"/>
        <path fill-rule="nonzero" d="M15.248 93.98C7.26 90.735 0 86.525 0 79.343c0-3.699 1.01-7.273 3-10.618C7.47 61.214 6.38 52.977 6.55 50.023c-.042-3.53.589-7.099 1.801-10.49 4.085-.581 7.607-2.951 9.573-6.422a16.072 16.072 0 0 0 6.223-1.939 19.288 19.288 0 0 0 8.581 2.016c7.164 0 13.38-3.926 16.81-9.713 9.512 4.976 15.918 14.86 15.918 26.197.075.806-1.008 9.197 4.544 20.933C71.326 73.406 72 76.345 72 79.343c0 7.069-7.104 11.333-15.202 14.663L48.43 78.158l5.398-10.875c3.26-6.56-1.464-14.314-8.782-14.314h-18.09c-7.309 0-12.046 7.746-8.782 14.314L23.57 78.16l-8.323 15.82zm7.661-47.647c1.808 0 3.273-1.476 3.273-3.297 0-1.82-1.465-3.297-3.273-3.297-1.807 0-3.273 1.476-3.273 3.297 0 1.82 1.466 3.297 3.273 3.297zm26.182 0c1.807 0 3.273-1.476 3.273-3.297 0-1.82-1.466-3.297-3.273-3.297-1.808 0-3.273 1.476-3.273 3.297 0 1.82 1.465 3.297 3.273 3.297z"/>
    </g>
</svg>
