<svg xmlns="http://www.w3.org/2000/svg" width="115" height="94" viewBox="0 0 115 94">
    <path fill="#ABDC00" fill-rule="nonzero" d="M114.218 37.39L87.377 5.236c-.331-.456-.693-.887-1.081-1.293-.11-.13-.23-.247-.355-.356A12.35 12.35 0 0 0 77.348.112H37.653c-3.34 0-6.374 1.33-8.604 3.485-.112.098-.22.204-.32.32-.4.415-.77.857-1.11 1.324L.783 37.39A3.365 3.365 0 0 0 0 39.547c0 8.817 7.177 15.99 16 15.99 3.45 0 6.645-1.1 9.26-2.963v12.22c0 9.137 6.928 16.684 15.81 17.68A17.796 17.796 0 0 0 57.5 93.406a17.792 17.792 0 0 0 16.43-10.934c8.882-.995 15.808-8.542 15.808-17.68v-12.22A15.913 15.913 0 0 0 99 55.537c8.822 0 16-7.173 16-15.99 0-.788-.276-1.552-.782-2.157zM16 48.803c-4.722 0-8.63-3.55-9.192-8.119L25.26 18.58v20.968c0 5.103-4.155 9.256-9.261 9.256zm41.5 37.87c-3.765 0-7.17-1.892-9.182-4.877A17.872 17.872 0 0 0 57.5 75.2a17.872 17.872 0 0 0 9.182 6.597 11.066 11.066 0 0 1-9.182 4.877zm.427-25.952c-.163.283-.314.471-.427.586a2.907 2.907 0 0 1-.426-.586l-3.61-6.248a2.97 2.97 0 0 1-.295-.663c.156-.039.394-.076.721-.076h7.22c.327 0 .565.037.72.076-.042.157-.13.38-.293.663l-3.61 6.248zM99 48.803c-5.106 0-9.26-4.153-9.26-9.256v-20.97l18.452 22.107c-.562 4.57-4.47 8.119-9.192 8.119zM43.064 28.965c.887 0 1.757.36 2.383.988.627.626.987 1.492.987 2.38 0 .886-.36 1.754-.987 2.381a3.396 3.396 0 0 1-2.383.986c-.887 0-1.753-.36-2.38-.986a3.384 3.384 0 0 1-.989-2.381c0-.888.36-1.754.988-2.38a3.384 3.384 0 0 1 2.381-.988zm28.872 0a3.377 3.377 0 0 1 3.37 3.367c-.001.887-.36 1.755-.99 2.382a3.393 3.393 0 0 1-2.38.986c-.887 0-1.757-.36-2.383-.986a3.394 3.394 0 0 1-.987-2.381c0-.888.36-1.754.987-2.38a3.386 3.386 0 0 1 2.383-.988z"/>
</svg>
