<svg xmlns="http://www.w3.org/2000/svg" xmlns:xlink="http://www.w3.org/1999/xlink" width="235" height="42" viewBox="0 0 235 42">
    <defs>
        <path id="a" d="M.794.112h13.152v14.853H.794z"/>
    </defs>
    <g fill="none" fill-rule="evenodd">
        <path fill="#FFF" d="M194.69 30.884c0-.751.277-1.369.831-1.853.552-.487 1.274-.728 2.162-.728.863 0 1.58.238 2.154.72.571.479.856 1.1.856 1.861 0 .772-.29 1.392-.867 1.861-.578.47-1.292.704-2.143.704-.864 0-1.578-.237-2.144-.712-.567-.473-.85-1.092-.85-1.853M211.718 30.175c1.466 0 2.21-.936 2.233-2.812h4.753c-.023 2.073-.673 3.75-1.947 5.028-1.275 1.278-2.92 1.916-4.932 1.916-2.49 0-4.39-.762-5.701-2.286-1.31-1.522-1.976-3.767-2-6.733v-1.513c0-2.988.645-5.267 1.938-6.838 1.292-1.572 3.202-2.357 5.728-2.357 2.132 0 3.811.648 5.04 1.945 1.225 1.294 1.85 3.131 1.874 5.51h-4.753c-.012-1.066-.19-1.887-.536-2.461-.346-.574-.917-.862-1.715-.862-.882 0-1.513.308-1.894.924-.382.616-.585 1.807-.608 3.578v1.933c0 1.547.078 2.63.232 3.244.156.614.411 1.067.768 1.353.357.288.864.43 1.52.43M227.06 30.405c.55 0 1.02-.112 1.405-.336.386-.222.673-.485.861-.79v-3.957h-1.194c-.844 0-1.508.27-1.995.81-.485.538-.73 1.26-.73 2.162 0 1.407.552 2.11 1.653 2.11zm2.934 3.55c-.14-.293-.282-.785-.422-1.476-.89 1.217-2.096 1.828-3.619 1.828-1.593 0-2.913-.527-3.962-1.583-1.047-1.054-1.571-2.42-1.571-4.096 0-1.992.634-3.535 1.905-4.625 1.271-1.09 3.101-1.645 5.489-1.67h1.512v-1.53c0-.853-.147-1.458-.439-1.81-.293-.352-.72-.528-1.283-.528-1.24 0-1.863.727-1.863 2.181h-4.97c0-1.759.66-3.209 1.976-4.353 1.317-1.142 2.984-1.713 4.999-1.713 2.083 0 3.696.542 4.839 1.627 1.141 1.084 1.712 2.634 1.712 4.65v8.95c.024 1.64.257 2.922.703 3.849v.3h-5.006zM117.254 25.082c0 1.881.196 3.195.588 3.942.39.746 1.052 1.12 1.983 1.12.966 0 1.697-.44 2.192-1.323v-8.715c-.484-.938-1.209-1.408-2.175-1.408-.897 0-1.552.37-1.966 1.11-.415.74-.622 2.057-.622 3.952v1.322zm-4.9-1.251c0-3.13.518-5.464 1.554-7.004 1.035-1.54 2.542-2.31 4.52-2.31 1.437 0 2.634.633 3.589 1.904V6.86h4.917v27.093H122.5l-.224-1.94c-1 1.528-2.288 2.293-3.864 2.293-1.955 0-3.448-.765-4.478-2.293-1.029-1.528-1.556-3.774-1.579-6.739v-1.444zM0 41.168c14.455-1.486 28.824-2.049 42.947 0 .61 0 .99-.649.688-1.17l-6.074-10.439a.8.8 0 0 0-.798-.392c-11.38 1.537-23.228 5.396-36.763 12M33.191 21.235l-4.067-7.111a.785.785 0 0 0-1.075-.296C19.556 18.76 10.912 26.078.858 36.88c12.215-5.897 23.134-9.536 33.642-11.213a.782.782 0 0 0 .56-1.164l-1.869-3.268zM15.954 16.246a121.345 121.345 0 0 0-3.742-2.404.814.814 0 0 0-1.121.271L1.715 30.018c5.013-4.958 9.715-9.086 14.27-12.53a.756.756 0 0 0-.031-1.242"/>
        <g transform="translate(12.865)">
            <mask id="b" fill="#fff">
                <use xlink:href="#a"/>
            </mask>
            <path fill="#FFF" d="M6.696.503L.899 10.236a.763.763 0 0 0 .277 1.042 124.61 124.61 0 0 1 5.518 3.547.82.82 0 0 0 .919-.001 84.73 84.73 0 0 1 5.93-3.628.757.757 0 0 0 .296-1.056L8.099.503c-.311-.521-1.093-.521-1.403 0" mask="url(#b)"/>
        </g>
        <path fill="#FFF" d="M58.46 23.853h4.8l-2.4-9.171-2.4 9.171zm5.946 4.329H57.33l-1.303 4.984a.38.38 0 0 1-.365.283H50.98a.379.379 0 0 1-.362-.491l7.793-24.973a.378.378 0 0 1 .361-.266h4.19c.166 0 .312.108.362.264l7.843 24.973a.378.378 0 0 1-.36.493h-4.734a.379.379 0 0 1-.365-.283l-1.303-4.984zM77.71 25.003c0 1.74.222 3.008.664 3.802.442.795 1.143 1.192 2.108 1.192.985 0 1.714-.367 2.19-1.096v-8.995c-.498-.802-1.217-1.2-2.158-1.2-.95 0-1.656.398-2.114 1.2-.459.8-.69 2.087-.69 3.863v1.234zm-4.809-1.234c0-3.088.545-5.39 1.632-6.908 1.088-1.521 2.61-2.28 4.572-2.28 1.664 0 2.95.673 3.857 2.018l.15-1.343a.363.363 0 0 1 .358-.328h3.651c.199 0 .36.164.36.37v18.457c0 2.402-.656 4.237-1.97 5.507-1.314 1.27-3.2 1.906-5.66 1.906-1.007 0-2.066-.206-3.177-.618-1-.372-1.769-.834-2.31-1.388a.371.371 0 0 1-.06-.42l1.291-2.73c.101-.21.37-.278.545-.126.398.344.876.635 1.435.87.725.308 1.41.462 2.057.462 1.076 0 1.849-.264 2.32-.793.469-.527.71-1.376.72-2.548v-1.618c-.916 1.23-2.112 1.844-3.585 1.844-1.959 0-3.475-.78-4.545-2.34-1.07-1.56-1.617-3.76-1.64-6.604v-1.39zM101.158 19.2a.374.374 0 0 1-.41.363l-1.243-.103c-1.355 0-2.274.583-2.753 1.747V33.08a.373.373 0 0 1-.378.369h-4.226a.373.373 0 0 1-.378-.369V15.291c0-.204.169-.369.378-.369h3.953c.198 0 .364.15.377.344l.115 1.66c.783-1.564 1.865-2.346 3.245-2.346.436 0 .808.045 1.115.133a.361.361 0 0 1 .251.353l-.046 4.134zM108.38 33.449h-4.027a.369.369 0 0 1-.359-.379V14.802c0-.21.161-.379.359-.379h4.026c.2 0 .36.17.36.379V33.07a.37.37 0 0 1-.36.379M103.777 9.5c0-.775.234-1.407.702-1.9.467-.491 1.091-.739 1.87-.739.78 0 1.404.248 1.872.74.467.492.702 1.124.702 1.899 0 .762-.232 1.394-.693 1.898-.463.505-1.09.757-1.881.757-.79 0-1.416-.252-1.88-.757-.46-.504-.692-1.136-.692-1.898M135.265 22.633h4.882v-.457c-.023-1.138-.206-1.998-.552-2.585-.345-.587-.942-.879-1.793-.879-.853 0-1.471.31-1.856.933-.386.62-.613 1.616-.68 2.988m3.07 11.674c-2.508 0-4.463-.762-5.866-2.286-1.403-1.524-2.105-3.702-2.105-6.54v-1.512c0-3 .644-5.316 1.932-6.946 1.288-1.629 3.134-2.443 5.539-2.443 2.347 0 4.111.764 5.296 2.292 1.185 1.526 1.79 3.789 1.813 6.784v2.062a.376.376 0 0 1-.371.379h-9.343c.068 1.412.373 2.446.914 3.098.54.653 1.373.98 2.501.98 1.478 0 2.734-.464 3.768-1.394.173-.154.437-.131.562.067l1.53 2.4a.388.388 0 0 1-.018.445c-.588.744-1.403 1.356-2.443 1.831-1.137.522-2.375.783-3.708.783M157.22 23.759c0-1.834-.198-3.13-.595-3.889-.398-.76-1.07-1.138-2.015-1.138-1.004 0-1.736.427-2.197 1.278v8.88c.438.818 1.182 1.226 2.231 1.226.969 0 1.64-.414 2.015-1.243.374-.828.562-2.12.562-3.871v-1.243zm4.879 1.243c0 2.978-.505 5.26-1.515 6.848-1.008 1.588-2.51 2.382-4.505 2.382-1.522 0-2.743-.624-3.666-1.874v8.434a.373.373 0 0 1-.371.376h-4.153a.373.373 0 0 1-.37-.376V15.308c0-.21.166-.378.37-.378h3.824c.192 0 .352.147.37.339l.14 1.395c.934-1.39 2.208-2.084 3.822-2.084 1.994 0 3.497.736 4.505 2.207 1.01 1.472 1.524 3.725 1.549 6.761v1.454zM169.676 25.077c0 3.4.91 5.097 2.732 5.097 1.68 0 2.584-1.417 2.714-4.253l.017-2.092c0-1.735-.24-3.021-.721-3.86-.483-.837-1.164-1.256-2.045-1.256-.846 0-1.507.42-1.982 1.256-.475.839-.715 2.125-.715 3.86v1.248zm-5.004-1.248c0-2.884.682-5.146 2.044-6.787 1.362-1.64 3.249-2.462 5.657-2.462 2.432 0 4.328.821 5.692 2.462 1.362 1.64 2.044 3.915 2.044 6.822v1.213c0 2.895-.675 5.156-2.027 6.785-1.35 1.63-3.243 2.445-5.674 2.445-2.443 0-4.343-.819-5.7-2.454-1.358-1.633-2.036-3.906-2.036-6.811v-1.213zM188.701 10.67v4.292h2.08c.201 0 .363.168.363.378v2.965a.37.37 0 0 1-.363.378h-2.08v9.441c0 .75.098 1.266.295 1.548.197.28.575.421 1.138.421.266 0 .504-.014.715-.04.22-.03.412.144.41.375l-.028 3.134a.383.383 0 0 1-.246.36 7.26 7.26 0 0 1-2.385.385c-3.078 0-4.634-1.84-4.667-5.519V18.683h-1.745a.37.37 0 0 1-.363-.378V15.34a.37.37 0 0 1 .363-.378h1.745V10.67a.37.37 0 0 1 .361-.378h4.044c.2 0 .363.169.363.378"/>
    </g>
</svg>
